<svg xmlns="http://www.w3.org/2000/svg" viewBox="0 0 100 100" width="100" height="100" role="img" aria-label="Sevyn8 animated">
  <defs>
    <linearGradient id="spectrum" x1="0" y1="0" x2="1" y2="1">
      <stop offset="0" stop-color="#19D3E0"></stop>
      <stop offset="0.5" stop-color="#414BF5"></stop>
      <stop offset="1" stop-color="#E63DCB"></stop>
    </linearGradient>
    <style>
      .track path{fill:none;stroke:url(#spectrum);stroke-width:2.4;stroke-linecap:round}
      .comet path{fill:none;stroke:#fff;stroke-width:2.6;stroke-linecap:round;stroke-dasharray:12 88;stroke-dashoffset:0;opacity:.85;animation:s8comet 6s linear infinite}
      .comet path:nth-child(2){animation-delay:.25s}
      .comet path:nth-child(3){animation-delay:.5s}
      .comet path:nth-child(4){animation-delay:.75s}
      .comet path:nth-child(5){animation-delay:1s}
      .comet path:nth-child(6){animation-delay:1.25s}
      @keyframes s8comet{to{stroke-dashoffset:-100}}
      @media (prefers-reduced-motion:reduce){.comet path{animation:none;opacity:0}}
    </style>
  </defs>
  <g class="track">
    <path d="M50 50 C28 28 28 12 50 12 C72 12 72 28 50 50 C28 72 28 88 50 88 C72 88 72 72 50 50 Z"></path>
    <path d="M50 50 C30.5 30.5 30.5 16.5 50 16.5 C69.5 16.5 69.5 30.5 50 50 C30.5 69.5 30.5 83.5 50 83.5 C69.5 83.5 69.5 69.5 50 50 Z"></path>
    <path d="M50 50 C33 33 33 21 50 21 C67 21 67 33 50 50 C33 67 33 79 50 79 C67 79 67 67 50 50 Z"></path>
    <path d="M50 50 C35.5 35.5 35.5 25.5 50 25.5 C64.5 25.5 64.5 35.5 50 50 C35.5 64.5 35.5 74.5 50 74.5 C64.5 74.5 64.5 64.5 50 50 Z"></path>
    <path d="M50 50 C38 38 38 30 50 30 C62 30 62 38 50 50 C38 62 38 70 50 70 C62 70 62 62 50 50 Z"></path>
    <path d="M50 50 C40.5 40.5 40.5 34.5 50 34.5 C59.5 34.5 59.5 40.5 50 50 C40.5 59.5 40.5 65.5 50 65.5 C59.5 65.5 59.5 59.5 50 50 Z"></path>
  </g>
  <g class="comet">
    <path pathLength="100" d="M50 50 C28 28 28 12 50 12 C72 12 72 28 50 50 C28 72 28 88 50 88 C72 88 72 72 50 50 Z"></path>
    <path pathLength="100" d="M50 50 C30.5 30.5 30.5 16.5 50 16.5 C69.5 16.5 69.5 30.5 50 50 C30.5 69.5 30.5 83.5 50 83.5 C69.5 83.5 69.5 69.5 50 50 Z"></path>
    <path pathLength="100" d="M50 50 C33 33 33 21 50 21 C67 21 67 33 50 50 C33 67 33 79 50 79 C67 79 67 67 50 50 Z"></path>
    <path pathLength="100" d="M50 50 C35.5 35.5 35.5 25.5 50 25.5 C64.5 25.5 64.5 35.5 50 50 C35.5 64.5 35.5 74.5 50 74.5 C64.5 74.5 64.5 64.5 50 50 Z"></path>
    <path pathLength="100" d="M50 50 C38 38 38 30 50 30 C62 30 62 38 50 50 C38 62 38 70 50 70 C62 70 62 62 50 50 Z"></path>
    <path pathLength="100" d="M50 50 C40.5 40.5 40.5 34.5 50 34.5 C59.5 34.5 59.5 40.5 50 50 C40.5 59.5 40.5 65.5 50 65.5 C59.5 65.5 59.5 59.5 50 50 Z"></path>
  </g>
  <circle cx="50" cy="50" r="3" fill="#FFFFFF"></circle>
</svg>
